<?xml version="1.0" encoding="UTF-8" standalone="no"?>
<!-- Created with Inkscape (http://www.inkscape.org/) -->

<svg
   width="212.67899mm"
   height="212.67902mm"
   viewBox="0 0 212.67899 212.67902"
   version="1.1"
   id="svg5"
   xml:space="preserve"
   inkscape:version="1.2.1 (9c6d41e, 2022-07-14)"
   sodipodi:docname="camtrap detector icon ideas.svg"
   xmlns:inkscape="http://www.inkscape.org/namespaces/inkscape"
   xmlns:sodipodi="http://sodipodi.sourceforge.net/DTD/sodipodi-0.dtd"
   xmlns:xlink="http://www.w3.org/1999/xlink"
   xmlns="http://www.w3.org/2000/svg"
   xmlns:svg="http://www.w3.org/2000/svg"><sodipodi:namedview
     id="namedview7"
     pagecolor="#ffffff"
     bordercolor="#000000"
     borderopacity="0.25"
     inkscape:showpageshadow="2"
     inkscape:pageopacity="0.0"
     inkscape:pagecheckerboard="0"
     inkscape:deskcolor="#d1d1d1"
     inkscape:document-units="mm"
     showgrid="false"
     inkscape:zoom="0.2674712"
     inkscape:cx="652.40668"
     inkscape:cy="1207.6066"
     inkscape:window-width="1440"
     inkscape:window-height="900"
     inkscape:window-x="0"
     inkscape:window-y="0"
     inkscape:window-maximized="0"
     inkscape:current-layer="g6214" /><defs
     id="defs2"><linearGradient
       inkscape:collect="always"
       id="linearGradient6513"><stop
         style="stop-color:#afb42b;stop-opacity:1;"
         offset="0.18112245"
         id="stop6509" /><stop
         style="stop-color:#00796b;stop-opacity:1;"
         offset="0.93367344"
         id="stop6511" /></linearGradient><filter
       style="color-interpolation-filters:sRGB"
       inkscape:label="Drop Shadow"
       id="filter6382"
       x="-0.013504389"
       y="-0.014069564"
       width="1.0270088"
       height="1.0340014"><feFlood
         flood-opacity="0.498039"
         flood-color="rgb(0,0,0)"
         result="flood"
         id="feFlood6372" /><feComposite
         in="flood"
         in2="SourceGraphic"
         operator="in"
         result="composite1"
         id="feComposite6374" /><feGaussianBlur
         in="composite1"
         stdDeviation="1"
         result="blur"
         id="feGaussianBlur6376" /><feOffset
         dx="0"
         dy="1"
         result="offset"
         id="feOffset6378" /><feComposite
         in="SourceGraphic"
         in2="offset"
         operator="over"
         result="composite2"
         id="feComposite6380" /></filter><linearGradient
       inkscape:collect="always"
       xlink:href="#linearGradient6513"
       id="linearGradient6507"
       gradientUnits="userSpaceOnUse"
       x1="12.430729"
       y1="196.8289"
       x2="101.26988"
       y2="111.51756"
       spreadMethod="reflect" /></defs><g
     inkscape:label="Layer 1"
     inkscape:groupmode="layer"
     id="layer1"
     transform="translate(-221.58149,-112.36904)"><g
       id="g8329"
       inkscape:export-filename="../Projects/camtrap-detector/app-icon.svg"
       inkscape:export-xdpi="96"
       inkscape:export-ydpi="96"><rect
         style="fill:#000000;fill-opacity:0;stroke:none;stroke-width:0.255955;stroke-dasharray:none;stroke-opacity:1"
         id="rect8313"
         width="212.679"
         height="212.679"
         x="221.58148"
         y="112.36904"
         ry="0" /><g
         id="g6505"
         transform="matrix(0.99953252,0,0,1.0354005,227.39117,102.35592)"
         inkscape:export-filename="../Projects/camtrap-detector/app-icon.svg"
         inkscape:export-xdpi="96"
         inkscape:export-ydpi="96"><rect
           style="display:inline;fill:url(#linearGradient6507);fill-opacity:1;stroke-width:0.263;stroke-dasharray:none;filter:url(#filter6382)"
           id="rect6497"
           width="177.72"
           height="170.58098"
           x="11.716832"
           y="26.584024"
           ry="40.021729"
           inkscape:label="" /><path
           id="path6499"
           style="fill:#1a322e;fill-opacity:0.98;stroke-width:0.231228"
           inkscape:label="Outer Frame"
           d="m 57.567546,36.763647 c -19.525784,0 -35.245394,15.719094 -35.245394,35.244878 v 79.732085 c 0,19.52578 15.71961,35.24488 35.245394,35.24488 h 86.018524 c 19.52578,0 35.24539,-15.7191 35.24539,-35.24488 V 72.008525 c 0,-19.525784 -15.71961,-35.244878 -35.24539,-35.244878 z m 15.91324,27.791069 h 54.192044 c 12.30124,0 22.20433,9.903086 22.20433,22.204329 v 50.231045 c 0,12.30124 -9.90309,22.20433 -22.20433,22.20433 H 73.480786 c -12.301244,0 -22.204329,-9.90309 -22.204329,-22.20433 V 86.759045 c 0,-12.301243 9.903085,-22.204329 22.204329,-22.204329 z" /><path
           id="path6503"
           style="fill:#1a322e;fill-opacity:0.980392;stroke-width:0.0924912"
           inkscape:label="Inner Frame"
           d="m 83.373102,81.8302 c -7.810314,0 -14.098158,6.287638 -14.098158,14.097951 v 31.892839 c 0,7.81031 6.287844,14.09795 14.098158,14.09795 h 34.407408 c 7.81031,0 14.09816,-6.28764 14.09816,-14.09795 V 95.928151 c 0,-7.810313 -6.28785,-14.097951 -14.09816,-14.097951 z m 6.365296,11.116428 h 21.676822 c 4.92049,0 8.88173,3.961234 8.88173,8.881732 v 20.09242 c 0,4.92049 -3.96124,8.88173 -8.88173,8.88173 H 89.738398 c -4.920498,0 -8.881732,-3.96124 -8.881732,-8.88173 v -20.09242 c 0,-4.920498 3.961234,-8.881732 8.881732,-8.881732 z" /></g></g></g></svg>
